<svg xmlns="http://www.w3.org/2000/svg" xml:space="preserve" width="150" height="129.67" viewBox="0 0 150 129.66643"><g transform="matrix(1.25 0 0 -1.25 21.358 362.68)"><g transform="matrix(1.3228 0 0 1.3228 -12.841 -75.912)"><g><path fill="#ccc" d="m86.866 258.72-1.978 0.643c-2.843 0.924-5.746 1.764-8.655 2.504v5.721l-1.59 0.775c-10.512 5.126-21.456 7.726-32.53 7.726-11.073 0-22.018-2.6-32.529-7.725l-1.591-0.776v-5.721c-2.908-0.74-5.811-1.58-8.655-2.504l-1.977-0.643v-32.757c0-8.543 4.398-13.261 8.088-15.715 3.872-2.575 8.19-3.449 11.345-3.708 3.645-2.429 7.604-4.315 11.777-5.609 4.386-1.36 8.942-2.05 13.542-2.05 4.601 0 9.157 0.69 13.542 2.05 4.174 1.294 8.133 3.18 11.777 5.609 3.156 0.259 7.473 1.133 11.346 3.708 3.69 2.454 8.088 7.172 8.088 15.715v32.757z"/><path d="m84.371 230.33v26.572l-0.254 0.083c-2.952 0.959-5.931 1.809-8.931 2.562l-1.447-2.228v8.704l-0.19 0.093c-10.168 4.958-20.745 7.472-31.436 7.472-0.669 0-1.336-0.009-2.004-0.029-10.008-0.294-19.9-2.795-29.433-7.443l-0.189-0.093v-8.704l-1.448 2.228c-2.999-0.753-5.979-1.603-8.931-2.562l-0.253-0.083v-26.572h-0.001v-4.373c0-7.438 3.793-11.522 6.975-13.638 3.717-2.472 7.952-3.178 10.811-3.342 3.59-2.471 7.513-4.381 11.67-5.67 4.146-1.286 8.453-1.937 12.803-1.937 1.087 0 2.172 0.04 3.252 0.121 1.08 0.082 2.156 0.203 3.226 0.365 2.138 0.324 4.252 0.808 6.325 1.451 4.156 1.289 8.08 3.199 11.67 5.67 2.858 0.164 7.093 0.87 10.81 3.342 3.182 2.116 6.975 6.2 6.975 13.638v4.373z"/><path fill="#841617" d="m24.455 225.96h-20.228c0-9.79 8.431-12.653 14.899-12.653h8.06 1.748c-6.104 4.917-4.479 12.653-4.479 12.653"/><path fill="#f60" d="m59.771 225.96s1.625-7.736-4.479-12.652h1.748 8.06c6.469 0 14.899 2.863 14.899 12.652h-20.228z"/><path fill="#ccc" d="m42.75 21.799v2.9336h0.56055v-0.99805h1.3672c0.085 0 0.15102-0.02477 0.19727-0.07227 0.04625-0.04875 0.06836-0.11547 0.06836-0.19922v-1.3926c0-0.085-0.02211-0.15047-0.06836-0.19922-0.045-0.04875-0.11016-0.07227-0.19141-0.07227h-1.9336zm3.7012 0v2.9336h0.55859v-2.4688h1.0957v0.89062h-0.86328v0.30859l0.91406 1.2695h0.65234v-0.02148l-0.84375-1.1621h0.44141c0.0825-0.0025 0.14516-0.02602 0.19141-0.07227s0.06836-0.11031 0.06836-0.19531v-1.2109c0-0.085-0.02211-0.15047-0.06836-0.19922s-0.10891-0.07227-0.19141-0.07227h-1.9551zm3.7539 0v2.9336h2.043v-0.47461h-1.4844v-0.79102h1.1875v-0.45508h-1.1875v-0.73633h1.4648v-0.47656h-2.0234zm3.7715 0c-0.0825 0-0.14711 0.02352-0.19336 0.07227-0.0475 0.04875-0.07227 0.11422-0.07227 0.19922v0.70898c0 0.06125 0.0093 0.10898 0.0293 0.14648 0.01875 0.0375 0.05422 0.07016 0.10547 0.09766l1.498 0.76953v0.49414h-1.0723v-0.54102h-0.56055v0.71484c-0.000001 0.08375 0.02477 0.15047 0.07227 0.19922 0.04625 0.04875 0.11086 0.07227 0.19336 0.07227h1.6719c0.08125 0 0.14586-0.02352 0.19336-0.07227s0.07031-0.11547 0.07031-0.19922v-0.76172c0-0.06125-0.01-0.11164-0.03125-0.15039-0.02-0.0375-0.05617-0.07086-0.10742-0.09961l-1.502-0.76367v-0.44141h1.0723v0.48438h0.56836v-0.66211c0-0.085-0.02336-0.14976-0.06836-0.19726-0.04625-0.0475-0.11016-0.07031-0.19141-0.07031h-1.6758zm3.5 0v2.9336h2.043v-0.47461h-1.4824v-0.79102h1.1875v-0.45508h-1.1875v-0.73633h1.4648v-0.47656h-2.0254zm3.5117 0v2.9336h0.56055v-1.9004l0.17773 0.2793 1.0254 1.6211h0.56055v-2.9336h-0.56055v1.9004l-0.11719-0.20312-1.0781-1.6973h-0.56836zm3.707 0v0.47656h0.86133v2.457h0.56055v-2.457h0.86523v-0.47656h-2.2871zm3.9297 0c-0.08125 0-0.14586 0.02352-0.19336 0.07227s-0.07031 0.11422-0.07031 0.19922v0.70898c0 0.06125 0.0086 0.10898 0.02734 0.14648 0.02 0.0375 0.05617 0.07016 0.10742 0.09766l1.498 0.76953v0.49414h-1.0723v-0.54102h-0.56055v0.71484c0 0.08375 0.02281 0.15047 0.07031 0.19922s0.11211 0.07227 0.19336 0.07227h1.6719c0.0825 0 0.14781-0.02352 0.19531-0.07227 0.04625-0.04875 0.07031-0.11547 0.07031-0.19922v-0.76172c0-0.06125-0.01125-0.11164-0.03125-0.15039-0.02125-0.0375-0.05617-0.07086-0.10742-0.09961l-1.502-0.76367v-0.44141h1.0723v0.48438h0.56836v-0.66211c0-0.085-0.02406-0.14976-0.07031-0.19726s-0.10891-0.07031-0.19141-0.07031h-1.6758zm-25.314 0.46484h1.0723v1.0137h-1.0723v-1.0137zm0.43555 53.016v1.8945h8.7148v6.6289c0 0.14625 0.15523 0.38844 0.39648 0.42969 0.24125 0.0425 3.9962 0.91344 5.2324 1.5234 0.58875 0.29 1.4265 0.7868 2.1152 0.8418 0.69875 0.055 1.1063-0.15203 1.7988-0.17578 0.5075-0.01875 0.85977 0.33805 1.4785 0.2168 0.56375-0.11125 1.0259-0.39562 1.8047-0.42188 2.2125-0.07375 2.538 0.78023 3.3242 0.77148v-5.9883l-0.39844-3.8535v-1.8672h-24.467z" transform="matrix(.8 0 0 -.8 -3.212 276.97)"/><path fill="#0085de" d="m41.23 10.977c-0.58625 1.1538-0.67156 3.006-0.16406 4.5723 0.4875 1.5088 1.4355 2.8836 2.998 3.7461 1.5625-0.8625 2.5105-2.2373 2.998-3.7461 0.50625-1.5662 0.42219-3.4185-0.16406-4.5723-0.8925 0.45-1.7902 0.67398-2.834 0.67774-1.0438 0.0025-1.9415-0.22774-2.834-0.67774zm-7.5 0.08789v2.2617h-2.2617v3.6191h2.2617v2.2617h3.6055v-2.2617h2.2617v-3.6191h-2.2617v-2.2617h-3.6055z" transform="matrix(.8 0 0 -.8 -3.212 276.97)"/><path fill="#fff" d="m41.598 11.84c-0.4275 1.045-0.33211 2.3843 0.05664 3.5293 0.44 1.2888 1.1252 2.4303 2.4102 3.2266 1.2853-0.79621 1.9696-1.9383 2.4082-3.2266 0.39-1.145 0.48539-2.4843 0.05664-3.5293-0.6425 0.22125-1.0191 0.29-1.3691 0.34375-0.32625 0.05125-0.6182 0.08359-1.0957 0.08984h-0.002c-0.4775-0.0062-0.76875-0.03859-1.0938-0.08984-0.35-0.05375-0.72859-0.1225-1.3711-0.34375zm-6.0586 1.0664c-0.89625 0-1.6691 0.52852-2.0254 1.291h1.5898c0.2275-0.0063 0.32828-0.13859 0.33203-0.24609 0.0063-0.12875-0.01414-0.17039-0.11914-0.30664-0.11625-0.155-0.04234-0.45312 0.22266-0.45312s0.34086 0.29812 0.22461 0.45312c-0.10625 0.13625-0.12734 0.17789-0.12109 0.30664 0.0037 0.1075 0.10453 0.23984 0.33203 0.24609h1.5898c-0.355-0.7625-1.1291-1.291-2.0254-1.291zm-2.0918 1.4473c-0.09125 0.245-0.14258 0.51086-0.14258 0.78711 0 0.715 0.33422 1.3517 0.85547 1.7617l1.028-1.927c0.07375-0.165 0.04102-0.43781-0.24023-0.47656l-1.5-0.14453zm4.1836 0-1.5 0.14453c-0.28125 0.03875-0.31203 0.31156-0.23828 0.47656l1.0254 1.9277c0.52125-0.41 0.85547-1.0467 0.85547-1.7617 0-0.27625-0.05008-0.54211-0.14258-0.78711zm-2.0898 0.94531c-0.05-0.0011-0.1 0.02516-0.14062 0.08203l-1.088 1.628c0.3522 0.23315 0.77344 0.36914 1.2266 0.36914 0.45312 0 0.87436-0.13599 1.2266-0.36914l-1.0879-1.627c-0.03813-0.0525-0.08672-0.08094-0.13672-0.08203z" transform="matrix(.8 0 0 -.8 -3.212 276.97)"/><path fill="#0085de" d="m41.82 12.244c-0.2725 0.77125-0.21461 1.7451-0.0059 2.6113 0.39343 1.6324 1.3793 2.8749 2.25 3.4219 0.86949-0.54693 1.8546-1.7894 2.248-3.4219 0.21-0.86625 0.26859-1.8401-0.0039-2.6113-0.39125 0.1025-0.75266 0.18898-1.1289 0.24023-0.37625 0.05125-0.74703 0.08734-1.1133 0.08984h-0.0039c-0.36625-0.0025-0.73828-0.03859-1.1133-0.08984-0.3775-0.05125-0.74016-0.13773-1.1289-0.24023zm2.2441 6.0332c-0.0007 0.00044-0.0013 0.0015-0.002 0.002h0.0039c-0.000701-0.00044-0.0013-0.0015-0.002-0.002zm-9.0605-4.9844c-0.365 0.10625-0.68648 0.31516-0.92773 0.59766h1.0059c0.01875-0.005 0.02781-0.02617 0.0078-0.04492-0.1075-0.1175-0.19844-0.36398-0.08594-0.55273zm1.0703 0c0.11375 0.18875 0.02156 0.43523-0.08594 0.55273-0.01875 0.01875-0.01094 0.03992 0.0078 0.04492h1.0059c-0.24-0.2825-0.56148-0.49141-0.92773-0.59766zm-2.4043 1.3906c-0.03625 0.14625-0.05469 0.30148-0.05469 0.45898 0 0.47875 0.17484 0.9157 0.46484 1.252l0.795-1.516c0.01875-0.0475 0.01289-0.08359-0.06836-0.08984l-1.1367-0.10547zm3.7383 0-1.1348 0.10547c-0.0825 0.0063-0.08906 0.04234-0.07031 0.08984l0.79492 1.5156c0.29-0.33625 0.46484-0.7732 0.46484-1.252 0-0.1575-0.01844-0.31273-0.05469-0.45898zm-1.9 1.066-0.752 1.15c0.24 0.105 0.50445 0.16602 0.7832 0.16602s0.5432-0.06102 0.7832-0.16602l-0.75-1.1504c-0.01875-0.0225-0.0432-0.025-0.06445 0z" transform="matrix(.8 0 0 -.8 -3.212 276.97)"/><path fill="#fff" d="m57.838 11.111c-0.7225 0-1.1816 0.48656-1.1816 1.1641 0 0.68125 0.45914 1.166 1.1816 1.166 0.2775 0 0.61797-0.08414 0.85547-0.18164v-0.63672h-0.0957c-0.04125 0.38125-0.37359 0.72461-0.74609 0.72461-0.6275 0-0.66602-0.67476-0.66602-1.0723 0-0.435 0.06875-1.0703 0.6875-1.0703 0.365 0 0.68148 0.33922 0.70898 0.73047h0.0957v-0.64062c-0.29625-0.11375-0.56234-0.18359-0.83984-0.18359zm15.248 0c-0.34375 0-0.73633 0.19898-0.73633 0.67773 0 0.7925 1.2422 0.60922 1.2422 1.168 0 0.27125-0.23758 0.37109-0.48633 0.37109-0.40625 0-0.66539-0.36234-0.68164-0.68359h-0.10938l0.0293 0.65039c0.2325 0.10125 0.48438 0.14648 0.73438 0.14648 0.45625 0 0.81641-0.28 0.81641-0.6875 0-0.87625-1.2168-0.69055-1.2168-1.1855 0-0.205 0.15047-0.34375 0.35547-0.34375 0.32125 0 0.54938 0.2557 0.60938 0.56445h0.10742l-0.025-0.538c-0.2875-0.1075-0.45242-0.13867-0.63867-0.13867zm3.3613 0c-0.13625 0-0.24609 0.10984-0.24609 0.24609 0 0.135 0.10984 0.24609 0.24609 0.24609 0.135 0 0.24609-0.11109 0.24609-0.24609 0-0.13625-0.11109-0.24609-0.24609-0.24609zm4.803 0.018c-0.16 0.01375-0.32438 0.02149-0.48438 0.02149h-0.19727v0.09375h0.22852v0.80469h-0.0059c-0.0725-0.1575-0.2407-0.22852-0.43945-0.22852-0.46375 0-0.70703 0.38625-0.70703 0.8125 0 0.4375 0.20289 0.80859 0.68164 0.80859 0.17 0 0.35109-0.03445 0.46484-0.2207h0.0059v0.20312c0.18875-0.0125 0.37289-0.01703 0.68164-0.01953v-0.09375h-0.22852v-2.1816zm-28.664 0.002c-0.16125 0.0125-0.32508 0.01953-0.48633 0.01953h-0.19336v0.09375h0.22656v2.0645h-0.22656v0.0957h0.9082v-0.0957h-0.22852v-2.1777zm15.703 0c-0.16125 0.0125-0.32508 0.01953-0.48633 0.01953h-0.19336v0.09375h0.22656v2.0645h-0.22656v0.0957h0.9082v-0.0957h-0.22852v-2.1777zm6.3926 0c-0.16125 0.0125-0.32508 0.01953-0.48633 0.01953h-0.19531v0.09375h0.22852v2.0645h-0.22852v0.0957h0.91016v-0.0957h-0.22852v-0.90039c0-0.265 0.17336-0.43555 0.34961-0.43555 0.12875 0 0.24609 0.05844 0.24609 0.30469v1.0312h-0.22656v0.0957h0.9082v-0.0957h-0.22656v-0.96875c0-0.35-0.22422-0.51953-0.54297-0.51953-0.22 0-0.39445 0.08445-0.50195 0.25195h-0.0059v-0.94141zm4.6328 0c-0.16125 0.0125-0.32508 0.01953-0.48633 0.01953h-0.19336v0.09375h0.22656v2.0645h-0.22656v0.0957h0.9082v-0.0957h-0.22852v-2.1777zm-29.553 0.01953v0.09375h0.30273v2.0645h-0.30273v0.0957h1.2598c0.53875 0 0.78125-0.26539 0.78125-0.61914 0-0.42875-0.36484-0.61695-0.74609-0.62695v-0.0059c0.32125-0.0225 0.60352-0.18281 0.60352-0.53906 0-0.3825-0.31133-0.46289-0.70508-0.46289h-1.1934zm15.703 0v0.09375h0.30273v2.0645h-0.30273v0.0957h1.2578c0.53875 0 0.7832-0.26539 0.7832-0.61914 0-0.42875-0.3668-0.61695-0.74805-0.62695v-0.0059c0.32125-0.0225 0.60547-0.18281 0.60547-0.53906 0-0.3825-0.31133-0.46289-0.70508-0.46289h-1.1934zm-14.908 0.09375h0.18359c0.31875 0 0.41016 0.13086 0.41016 0.44336 0 0.31625-0.11133 0.43945-0.39258 0.43945h-0.20117v-0.88281zm15.703 0h0.18164c0.31875 0 0.41016 0.13086 0.41016 0.44336 0 0.31625-0.10937 0.43945-0.39062 0.43945h-0.20117v-0.88281zm-10.531 0.57617c-0.4825 0-0.82031 0.345-0.82031 0.8125 0 0.495 0.33156 0.80859 0.82031 0.80859 0.325 0 0.57688-0.15766 0.70312-0.47266l-0.08398-0.03906c-0.105 0.2275-0.27211 0.37891-0.53711 0.37891-0.36 0-0.41016-0.33984-0.41016-0.62109v-0.13477h1.0605c0-0.4675-0.32242-0.73242-0.73242-0.73242zm4.1738 0c-0.17625 0-0.33398 0.11414-0.39648 0.27539h-0.0078v-0.25586c-0.16125 0.0125-0.32508 0.01953-0.48633 0.01953h-0.19336v0.09375h0.22656v1.3555h-0.22656v0.0957h0.9082v-0.0957h-0.22852v-0.66406c0-0.24625 0.07336-0.67188 0.25586-0.67188 0.045 0 0.06055 0.02375 0.06055 0.0625 0 0.0475-0.0078 0.05719-0.0078 0.14844 0 0.105 0.07086 0.16797 0.19336 0.16797 0.1425 0 0.20508-0.08289 0.20508-0.21289 0-0.18-0.10398-0.31836-0.30273-0.31836zm1.1543 0c-0.4825 0-0.82031 0.345-0.82031 0.8125 0 0.495 0.33156 0.80859 0.82031 0.80859 0.4825 0 0.82031-0.34234 0.82031-0.80859 0-0.4675-0.33781-0.8125-0.82031-0.8125zm1.5625 0c-0.30625 0-0.55469 0.16133-0.55469 0.48633 0 0.61125 0.86328 0.45195 0.86328 0.81445 0 0.16375-0.15711 0.22656-0.31836 0.22656-0.27375 0-0.46016-0.24359-0.47266-0.52734h-0.09375v0.51172c0.11625 0.04 0.31469 0.10938 0.55469 0.10938 0.31875 0 0.63281-0.18906 0.63281-0.53906 0-0.61875-0.86328-0.46852-0.86328-0.79102 0-0.12875 0.10422-0.19531 0.23047-0.19531 0.22375 0 0.39352 0.19211 0.41602 0.41211h0.09375v-0.40625c-0.12375-0.0475-0.25203-0.10156-0.48828-0.10156zm1.3496 0c-0.30625 0-0.55469 0.16133-0.55469 0.48633 0 0.61125 0.86328 0.45195 0.86328 0.81445 0 0.16375-0.15711 0.22656-0.31836 0.22656-0.275 0-0.46016-0.24359-0.47266-0.52734h-0.0957v0.51172c0.11625 0.04 0.31469 0.10938 0.55469 0.10938 0.31875 0 0.63477-0.18906 0.63477-0.53906 0-0.61875-0.86328-0.46852-0.86328-0.79102 0-0.12875 0.10227-0.19531 0.22852-0.19531 0.22375 0 0.39547 0.19211 0.41797 0.41211h0.09375v-0.40625c-0.126-0.049-0.254-0.103-0.49-0.103zm7.4629 0c-0.4825 0-0.82031 0.345-0.82031 0.8125 0 0.495 0.33156 0.80859 0.82031 0.80859 0.325 0 0.57688-0.15766 0.70312-0.47266l-0.08398-0.03906c-0.105 0.2275-0.27211 0.37891-0.53711 0.37891-0.36 0-0.41016-0.33984-0.41016-0.62109v-0.13477h1.0605c0.000001-0.4675-0.32242-0.73242-0.73242-0.73242zm6.3926 0c-0.4825 0-0.82031 0.345-0.82031 0.8125 0 0.495 0.33156 0.80859 0.82031 0.80859 0.325 0 0.57688-0.15766 0.70312-0.47266l-0.08398-0.03906c-0.105 0.2275-0.27211 0.37891-0.53711 0.37891-0.36 0-0.41016-0.33984-0.41016-0.62109v-0.13477h1.0586c-0.000001-0.4675-0.32047-0.73242-0.73047-0.73242zm-24.295 0.01953c-0.16125 0.0125-0.32508 0.01953-0.48633 0.01953h-0.19531v0.09375h0.22852v0.96875c0 0.40625 0.22226 0.51953 0.54102 0.51953 0.195 0 0.39445-0.08406 0.50195-0.25781h0.0059v0.24023c0.18875-0.0125 0.37164-0.01703 0.68164-0.01953v-0.0957h-0.22656v-1.4688c-0.16125 0.0125-0.32508 0.01953-0.48633 0.01953h-0.19531v0.09375h0.22656v0.83203c0 0.3375-0.14836 0.50586-0.34961 0.50586-0.13 0-0.24609-0.03164-0.24609-0.27539v-1.1758zm15.703 0c-0.16125 0.0125-0.32508 0.01953-0.48633 0.01953h-0.19531v0.09375h0.22656v0.96875c0 0.40625 0.22422 0.51953 0.54297 0.51953 0.195 0 0.39445-0.08406 0.50195-0.25781h0.0059v0.24023c0.18875-0.0125 0.37164-0.01703 0.68164-0.01953v-0.0957h-0.22852v-1.4688c-0.16125 0.0125-0.32312 0.01953-0.48438 0.01953h-0.19531v0.09375h0.22656v0.83203c0 0.3375-0.14836 0.50586-0.34961 0.50586-0.13 0-0.24609-0.03164-0.24609-0.27539v-1.1758zm7.4414 0c-0.16125 0.0125-0.32508 0.01953-0.48633 0.01953h-0.19531v0.09375h0.22656v1.3555h-0.22656v0.0957h0.9082v-0.0957h-0.22656v-1.4688zm-20.963 0.07617c0.215 0 0.25781 0.21648 0.25781 0.39648v0.14648h-0.56836c0.0087-0.20125 0.01805-0.54297 0.31055-0.54297zm5.3457 0c0.3275 0 0.32617 0.34805 0.32617 0.7168 0.000001 0.36875 0.0013 0.71484-0.32617 0.71484-0.3275 0-0.32812-0.34609-0.32812-0.71484s0.000625-0.7168 0.32812-0.7168zm10.357 0c0.215 0 0.25781 0.21648 0.25781 0.39648v0.14648h-0.56836c0.0088-0.20125 0.0168-0.54297 0.31055-0.54297zm6.3906 0c0.215 0 0.25976 0.21648 0.25976 0.39648v0.14648h-0.56836c0.0088-0.20125 0.01609-0.54297 0.30859-0.54297zm2.6484 0.03711c0.33125 0 0.35352 0.42344 0.35352 0.67969 0 0.29875-0.02227 0.67774-0.35352 0.67774-0.2425 0-0.32812-0.22148-0.32812-0.67774 0-0.37625 0.01563-0.67969 0.32812-0.67969zm-29.896 0.26953h0.23438c0.3625 0 0.48242 0.15312 0.48242 0.51562 0 0.42875-0.18461 0.57031-0.53711 0.57031h-0.17969v-1.0859zm15.703 0h0.23438c0.3625 0 0.48242 0.15312 0.48242 0.51562 0 0.42875-0.18461 0.57031-0.53711 0.57031h-0.17969v-1.0859zm-22.289 0.63672c-0.025-0.0125-0.07233 0.0062-0.08984 0.04297-0.025 0.0475-0.0078 0.16797-0.0078 0.16797s0.08609 0.04492 0.12109 0.07617c0.04 0.03625 0.07711 0.09375 0.09961 0.125 0.0175 0.02375 0.0432 0.04656 0.06445 0.07031 0.03375 0.03375 0.05297 0.07 0.04297 0.09375-0.01 0.01625-0.05016 0.0257-0.09766 0.0332-0.095 0.01625-0.20898 0.01563-0.20898 0.01563s0.24664 0.03094 0.33789 0.05469c0.0525 0.0125 0.06398 0.01852 0.08398 0.04102 0.01125 0.0125 0.01775 0.05016 0.0078 0.06641-0.14875-0.065-0.24469-0.09023-0.39844-0.11523 0.01375 0.005 0.05898 0.02617 0.08398 0.04492 0.0225 0.01625 0.02664 0.04258 0.02539 0.04883-0.02875 0.075-0.18164 0.10156-0.18164 0.10156v0.22461c0.15125 0.03 0.34461 0.02375 0.53711 0.0625 0 0 0.02672-0.03625 0.04297-0.0625 0.0525-0.08375 0.13438-0.13719 0.20312-0.21094 0.1-0.10875 0.21492-0.18844 0.29492-0.27344 0.04-0.04125 0.06789-0.05148 0.08789-0.11524 0.04125-0.13625-0.13883-0.22672-0.20508-0.19922-0.13875 0.05875-0.23164 0.18672-0.36914 0.26172-0.01625 0.0088-0.03883 0.0095-0.04883-0.01172-0.01875-0.06875 0.0018-0.22352-0.01953-0.32227-0.0087-0.045-0.0078-0.04781-0.03906-0.07031-0.1475-0.025-0.25594-0.08913-0.36719-0.15039zm-0.44531 0.21484c-0.11859-0.0025-0.23774 0.02195-0.34961 0.08008-0.295 0.1525-0.39688 0.51273-0.26562 0.80273 0.115 0.25125 0.34297 0.41734 0.60547 0.49609 0.1325 0.03875 0.26414 0.04844 0.40039 0.05469 0.16625 0.0088 0.31656 0.01344 0.47656 0.05469 0.035 0.0087 0.07305 0.0268 0.0918 0.06055 0.0425 0.08 0.003 0.16961-0.08203 0.19336-0.0012 0.14-0.01367 0.42188-0.01367 0.42188s0.68141-0.06401 0.56641-0.67773c-0.02875-0.1475-0.14289-0.29844-0.27539-0.36719-0.3425-0.175-0.71711-0.09913-1.0684-0.21289-0.1175-0.03875-0.2832-0.09474-0.31445-0.22852-0.01375-0.0525-0.000313-0.16023 0.05469-0.17773 0.0875-0.0275 0.1857 0.04742 0.31445 0.07617 0.08 0.02 0.15961 0.01875 0.22461 0 0.0275-0.0088 0.06977-0.02086 0.07227-0.03711-0.0037-0.01375-0.03453-0.02641-0.05078-0.03516-0.04-0.02125-0.0793-0.02867-0.12305-0.04492-0.07-0.02625-0.14164-0.06144-0.21289-0.10156 0.0675-0.01375 0.17984-0.01702 0.24609-0.0098 0.05375 0.0062 0.22078 0.0059 0.26953-0.0078 0.01125-0.0025 0.03344-0.0125 0.02344-0.03125-0.02-0.0325-0.05101-0.04422-0.07227-0.07422-0.04875-0.06625-0.09046-0.13336-0.16797-0.16211-0.1125-0.04312-0.23102-0.07039-0.34961-0.07226zm0.33008 1.5176-0.002 0.06055s-0.0793 0.03219-0.0918 0.05469c-0.0063 0.01-0.02758 0.03695-0.01758 0.06445 0.06625 0.17625 0.15734 0.34836 0.18359 0.53711 0.125 0.0175 0.23422 0.01391 0.38672 0.03516l0.0039-0.7168s-0.09195-0.01984-0.2207-0.02734c-0.1675-0.01125-0.24219-0.0078-0.24219-0.0078zm8.5293 0.30273c-0.45375 0-0.63086 0.21719-0.63086 0.55469v0.19141h-0.22656v0.0957h0.22656v1.3555h-0.22656v0.0957h0.94141v-0.0957h-0.25977v-1.3555h0.25977v-0.0957h-0.25977v-0.41602c0-0.12 0.01555-0.23633 0.1543-0.23633 0.135 0 0.13477 0.13938 0.13477 0.26562 0 0.11375 0.04187 0.20117 0.20312 0.20117 0.1225 0 0.19531-0.0657 0.19531-0.2207 0-0.2875-0.36672-0.33984-0.51172-0.33984zm2.2324 0c-0.7225 0-1.1836 0.48461-1.1836 1.1621 0 0.68125 0.46109 1.168 1.1836 1.168 0.7225 0 1.1816-0.48672 1.1816-1.168 0-0.6775-0.45914-1.1621-1.1816-1.1621zm-10.912 0.0059c-0.14125 0.06-0.22984 0.18898-0.24609 0.33398-0.03 0.28125 0.15297 0.43172 0.35547 0.48047 0.16 0.0375 0.31688 0.04641 0.48438 0.06641 0.02 0.0013 0.06391 0.0025 0.09766 0.01758 0.03 0.01375 0.04578 0.03008 0.05078 0.04883 0.0087 0.02625 0.0039 0.04711-0.01367 0.06836-0.0175 0.0225-0.06641 0.03516-0.06641 0.03516l-0.0098 0.33594s0.1368-0.0038 0.24805-0.07031c0.10375-0.0625 0.16891-0.14219 0.19141-0.24219 0.0275-0.1175 0.0083-0.23125-0.07422-0.34375-0.05375-0.075-0.14914-0.13031-0.24414-0.16406-0.2-0.07-0.4168-0.05914-0.62305-0.08789-0.03125-0.005-0.0607-0.02789-0.06445-0.05664-0.005-0.0525 0.04492-0.07617 0.04492-0.07617s-0.02453-0.08262-0.05078-0.16016c-0.02375-0.06-0.05758-0.1418-0.08008-0.18555zm12.926 0.01367c-0.16125 0.0125-0.32508 0.01758-0.48633 0.01758h-0.19531v0.09375h0.22852v2.0664h-0.22852v0.0957h0.9082v-0.0957h-0.22656v-0.65039h0.14453l0.43945 0.65039h-0.20898v0.0957h0.89258v-0.0957h-0.15234l-0.66211-0.98047 0.23047-0.375h0.26562v-0.0957h-0.64258v0.0957h0.24609l-0.36719 0.61133h-0.18555v-1.4336zm1.9941 0c-0.16125 0.0125-0.32508 0.01758-0.48633 0.01758h-0.19336v0.09375h0.22656v2.0664h-0.22656v0.0957h0.9082v-0.0957h-0.22852v-2.1777zm2.7656 0c-0.16125 0.0125-0.32508 0.01758-0.48633 0.01758h-0.19531v0.09375h0.22656v2.0664h-0.22656v0.0957h0.9082v-0.0957h-0.22656v-0.90234c0-0.265 0.17336-0.43555 0.34961-0.43555 0.12875 0 0.24609 0.06039 0.24609 0.30664v1.0312h-0.22852v0.0957h0.91016v-0.0957h-0.22852v-0.96875c0-0.35-0.22422-0.51953-0.54297-0.51953-0.22 0-0.3925 0.08445-0.5 0.25195h-0.0059v-0.94141zm-6.7734 0.07422c0.59 0 0.62695 0.67461 0.62695 1.0684 0 0.3975-0.03695 1.0742-0.62695 1.0742s-0.62891-0.67672-0.62891-1.0742c0-0.39375 0.03891-1.0684 0.62891-1.0684zm-3.9883 0.61524c-0.4825 0-0.82031 0.34305-0.82031 0.81055 0 0.495 0.33156 0.81055 0.82031 0.81055 0.4825 0 0.82031-0.3443 0.82031-0.81055 0-0.4675-0.33781-0.81055-0.82031-0.81055zm9.0664 0c-0.22375 0-0.59961 0.06875-0.59961 0.34375 0 0.135 0.07813 0.16992 0.17188 0.16992 0.35375 0 0.0048-0.41797 0.43359-0.41797 0.23 0 0.27734 0.10305 0.27734 0.24805v0.19531c-0.0825 0.035-0.24195 0.07945-0.31445 0.0957-0.385 0.07625-0.67578 0.10562-0.67578 0.48438 0 0.305 0.16367 0.50195 0.48242 0.50195 0.20125 0 0.44172-0.04734 0.51172-0.24609h0.0059c0.03125 0.18625 0.12445 0.22852 0.31445 0.22852 0.11625 0 0.23727-0.01148 0.35352-0.02148v-0.09375c-0.19125 0-0.22461-0.06242-0.22461-0.26367v-0.74805c0-0.42875-0.31383-0.47656-0.73633-0.47656zm3.8945 0c-0.4825 0-0.82031 0.34305-0.82031 0.81055 0 0.495 0.33156 0.81055 0.82031 0.81055 0.4825 0 0.82031-0.3443 0.82031-0.81055 0-0.4675-0.33781-0.81055-0.82031-0.81055zm2.1445 0c-0.195 0-0.3982 0.07156-0.50195 0.25781h-0.0059v-0.23828c-0.16125 0.0125-0.32508 0.01758-0.48633 0.01758h-0.19531v0.0957h0.22656v1.3555h-0.22656v0.0957h0.9082v-0.0957h-0.22656v-0.83203c0-0.3375 0.14836-0.50586 0.34961-0.50586 0.12875 0 0.24609 0.03406 0.24609 0.28906v1.0488h-0.22852v0.0957h0.91016v-0.0957h-0.22852v-0.83203c0-0.3375 0.14836-0.50586 0.34961-0.50586 0.13 0 0.24805 0.03406 0.24805 0.28906v1.0488h-0.22852v0.0957h0.9082v-0.0957h-0.22656v-0.96875c0-0.40625-0.22422-0.51953-0.54297-0.51953-0.1925 0-0.42219 0.07328-0.52344 0.30078h-0.0059c-0.0725-0.2275-0.25078-0.30078-0.51953-0.30078zm2.6602 0c-0.22375 0-0.59961 0.06875-0.59961 0.34375 0 0.135 0.07813 0.16992 0.17188 0.16992 0.35375 0 0.0048-0.41797 0.43359-0.41797 0.23 0 0.27734 0.10305 0.27734 0.24805v0.19531c-0.0825 0.035-0.24195 0.07945-0.31445 0.0957-0.385 0.07625-0.67578 0.10562-0.67578 0.48438 0 0.305 0.16367 0.50195 0.48242 0.50195 0.20125 0 0.44102-0.04734 0.50977-0.24609h0.0078c0.03125 0.18625 0.12445 0.22852 0.31445 0.22852 0.11625 0 0.23727-0.01148 0.35352-0.02148v-0.09375c-0.19125 0-0.22461-0.06242-0.22461-0.26367v-0.74805c0-0.42875-0.31383-0.47656-0.73633-0.47656zm-17.766 0.09375c0.3275 0 0.32812 0.3468 0.32812 0.7168 0 0.36875-0.000625 0.71484-0.32812 0.71484s-0.32617-0.34609-0.32617-0.71484c0-0.37-0.0013-0.7168 0.32617-0.7168zm12.961 0c0.3275 0 0.32812 0.3468 0.32812 0.7168 0 0.36875-0.000625 0.71484-0.32812 0.71484s-0.32812-0.34609-0.32812-0.71484c0-0.37 0.000625-0.7168 0.32812-0.7168zm-19.604 0.13086 0.0039 0.50586 0.15039 0.0625 0.15234 0.06836 0.0039-0.60547c-0.115-0.01375-0.17555-0.01625-0.31055-0.03125zm-0.071 0.169s-0.10359 0.02203-0.15234 0.05078c-0.04625 0.02625-0.11524 0.07074-0.14648 0.14453-0.0825 0.19625 0.0225 0.38625 0.1875 0.46875 0.08625 0.04125 0.19922 0.08023 0.29297 0.11524 0.09 0.035 0.25117 0.13609 0.26367 0.18359 0.0075 0.02875-0.02734 0.05859-0.02734 0.05859l-0.0039 0.23633s0.10008-0.02008 0.17383-0.08008c0.0675-0.0575 0.11844-0.13125 0.11719-0.25 0-0.13-0.0611-0.23164-0.24609-0.33789-0.1425-0.085-0.31617-0.15094-0.45117-0.21094-0.02-0.0087-0.03609-0.04656-0.02734-0.07031 0.0075-0.025 0.02344-0.03516 0.02344-0.03516l-0.004-0.274zm16.062 0.23828v0.26953c0 0.1825-0.004 0.56641-0.30274 0.56641-0.17625 0-0.23438-0.14344-0.23438-0.30469 0-0.28375 0.09562-0.37555 0.26562-0.43555l0.27148-0.0957zm8.6992 0v0.26953c0 0.1825-0.004 0.56641-0.30273 0.56641-0.1775 0-0.23438-0.14344-0.23438-0.30469 0-0.28375 0.09562-0.37555 0.26562-0.43555l0.27148-0.0957zm-24.668 0.58594s0.0064 0.62141 0.01758 0.94141c0.0025 0.07375 0.04328 0.09 0.11328 0.09375 0.085 0.0063 0.11008-0.04687 0.11133-0.07813 0.0037-0.1025 0.01577-0.5475 0.01953-0.78125 0.0025-0.02-0.0049-0.02336-0.01367-0.03711-0.04-0.04125-0.09883-0.07062-0.11133-0.07813-0.04375-0.025-0.13672-0.06055-0.13672-0.06055zm-0.05664 0.33008s-0.04375 0.02172-0.09375 0.07422c-0.0375 0.03875-0.09938 0.11663-0.10938 0.24414-0.01 0.1125 0.01422 0.14453 0.04297 0.20703 0.02375 0.05 0.07889 0.04625 0.09766 0 0.01625-0.0375-0.0072-0.07375 0.0078-0.15625 0.01-0.06125 0.05859-0.0957 0.05859-0.0957l-0.0039-0.27344zm4.8438 11.047v0.8125h1.5801v4.3359h0.92969v-4.3359h1.5781v-0.8125h-4.0879zm5.8398 0v5.1484h0.93164v-2.1582h2.334v2.1582h0.92969v-5.1484h-0.92969v2.1504h-2.334v-2.1504h-0.93164zm6.5977 0c-0.1825 0-0.25781 0.07531-0.25781 0.25781v4.6328c0 0.1825 0.07531 0.25781 0.25781 0.25781h3.2793v-0.81445h-2.6074v-1.3613h2.1191v-0.81445h-2.1191v-1.3457h2.5508v-0.8125h-3.2227zm-51.935 2.299v0.54883h34.744v-0.54883h-34.744zm59.971 0v0.55078h34.744v-0.55078h-34.744zm-59.971 5.5723v23.426h11.377c0.58125 0 1.0652-0.09516 1.459-0.28516 0.41375-0.2 0.72344-0.50672 0.92969-0.91797 0.20375-0.40625 0.30859-0.91289 0.30859-1.5254v-5.7656c0-0.77625-0.12219-1.3891-0.36719-1.8379-0.245-0.45-0.66531-0.83852-1.2578-1.166l-1.1953-0.67383 1.1035-0.67578c0.55125-0.3475 0.95031-0.72406 1.1953-1.1328 0.24625-0.40875 0.36914-1.013 0.36914-1.8105v-4.9043c0-1.8188-0.88117-2.7305-2.6387-2.7305h-11.283zm16.957 0v23.426h11.068l1.1641-0.89062v-3.7383h-7.0215v-5.1816h4.416l1.1641-0.89062v-3.5879h-5.5801v-4.5059h5.7637l1.166-0.89062v-3.7402h-12.141zm14.777 0v23.426h9.3516c1.5738 0 2.7704-0.37727 3.5879-1.1348 0.8175-0.755 1.2266-1.9191 1.2266-3.4941v-14.105c0-1.5738-0.40906-2.7491-1.2266-3.5254-0.8175-0.7775-2.0141-1.166-3.5879-1.166h-9.3516zm16.895 0v23.426h9.5391v-0.17188l0.02344-0.10547 0.93164-4.4141h-5.2812v-18.734h-5.2129zm16.096 0-4.9355 23.365v0.06055h5.2129l0.55274-3.4941h1.6582l1.166-0.89062-0.57422-3.5254h-1.5156l1.2891-7.9727 2.3789 14.68 0.14844 0.91797 0.04687 0.28516h5.2129v-0.06055l-0.04687-0.22461-0.19531-0.91797-4.6934-22.223h-5.7051zm12.604 0v23.426h5.1523v-11.498l3.541 9.4453 3.603-9.445v11.498h5.0898v-23.426h-5.3047l-3.3887 10.365-3.3574-10.365h-5.3359zm-72.115 4.3242h3.4648v3.9863l-1.166 0.88867h-2.2988v-4.875zm31.734 0.0918h2.2695c0.47 0 0.82727 0.09039 1.0723 0.27539 0.24625 0.18375 0.36914 0.51242 0.36914 0.98242v12.08c0 0.47-0.12289 0.79672-0.36914 0.98047-0.245 0.18375-0.60227 0.27734-1.0723 0.27734h-2.2695v-14.596zm-31.734 8.9531h2.3926l1.2266 0.79688v4.9355h-3.6191v-5.7324zm24.645 14.318c-0.13625 0-0.24562 0.0425-0.32812 0.125s-0.12305 0.19312-0.12305 0.32812v1.5664c0 0.13 0.02125 0.23289 0.0625 0.30664s0.11289 0.14203 0.21289 0.20703l3.3945 2.0098v1.5684h-2.9453v-1.5742h-0.72461v1.7754c0 0.13375 0.04055 0.24102 0.12305 0.32226 0.0825 0.08125 0.19188 0.12305 0.32812 0.12305h3.4922c0.13625 0 0.24562-0.0425 0.32812-0.125s0.12305-0.19117 0.12305-0.32617v-1.791c0-0.12375-0.02-0.22258-0.0625-0.29883-0.04125-0.0775-0.11164-0.14789-0.21289-0.21289l-0.67969-0.40234-2.7148-1.6016v-1.3535h2.9453v1.4238h0.72461v-1.625c0-0.13375-0.04039-0.24102-0.11914-0.32227-0.08-0.08125-0.18602-0.12305-0.32227-0.12305h-3.502zm6.8262 0v6.7578h3.998v-0.66406h-3.2734v-2.4492h2.7246v-0.64648h-2.7246v-2.334h3.2285v-0.66406h-3.9531zm6.6328 0v6.7578h0.72461v-6.0938h3.0254v2.4668h-2.2461l-0.03516 0.35547 2.4043 3.2715h0.91992v-0.03516l-2.2559-2.9453h1.5039c0.13-0.0062 0.2357-0.04891 0.31445-0.12891 0.08-0.07875 0.11914-0.18602 0.11914-0.32226v-2.873c0-0.13625-0.03914-0.24562-0.11914-0.32812-0.07875-0.0825-0.18602-0.125-0.32226-0.125h-4.0332zm7.332 0v6.7578h0.72461v-6.7578h-0.72461zm3.6523 0v6.7578h3.9961v-0.66406h-3.2715v-2.4492h2.7227v-0.64648h-2.7227v-2.334h3.2266v-0.66406h-3.9512zm7.0645 0c-0.13625 0-0.24562 0.0425-0.32812 0.125s-0.12305 0.19312-0.12305 0.32812v1.5664c0 0.13 0.02 0.23289 0.0625 0.30664 0.04125 0.07375 0.11164 0.14203 0.21289 0.20703l0.23633 0.14062 0.79492 0.4707 2.3633 1.3984v1.5684h-2.9453v-1.5742h-0.72461v1.7754c0 0.13375 0.04055 0.24102 0.12305 0.32226 0.0825 0.08125 0.19187 0.12305 0.32812 0.12305h3.4922c0.13625 0 0.24562-0.0425 0.32812-0.125s0.12305-0.19117 0.12305-0.32617v-1.791c0-0.12375-0.02125-0.22258-0.0625-0.29883-0.04125-0.0775-0.11289-0.14789-0.21289-0.21289l-2.3887-1.4102-0.79492-0.46875-0.21094-0.125v-1.3535h2.9453v1.4238h0.72461v-1.625c0-0.13375-0.04039-0.24102-0.11914-0.32227-0.08-0.08125-0.18602-0.12305-0.32226-0.12305h-3.502zm-48.592 1.8105-1.6562 1.7812v5.0547l1.6562 1.7793h0.66992v1.4922l1.6562 1.7812h2.9922l1.6562-1.7812v-6.1152h-1.6562v5.6738l-0.41211 0.44141h-2.0449l-0.41211-0.44141v-1.0508h0.54297l1.6582-1.7793v-5.0547l-1.6582-1.7812h-2.9922zm0.53516 1.7812h2.0469l0.41016 0.44141v4.1719l-0.41016 0.44141h-0.13281v-2.8438h-1.7793v2.8438h-0.13477l-0.41211-0.44141v-4.1719l0.41211-0.44141z" transform="matrix(.8 0 0 -.8 -3.212 276.97)"/></g><g><path d="m72.772 223.34c0.03471 0.0967 0.0797 0.22173 0.0797 0.22173l-1.5345 1.1349h-0.15378-2.3135c-1.0559 0-1.8616-0.78752-2.2528-1.3594h-2.8561c-0.4642 0.009-1.7832-0.20413-2.1925-1.2897-0.22274-0.58967-0.59965-1.7964-0.80412-2.4634 0 0-0.0095-0.03-0.01181-0.0376h-0.000338l-0.7166-2.2942s3.2916-0.00073 4.2641-0.00073c-0.03802-0.096-0.09022-0.22787-0.09022-0.22787l1.6244-1.2658 2.3255 0.002c1.2083 0 2.0301 0.79737 2.4657 1.6467 0.10541-0.0721 0.35611-0.24327 0.35611-0.24327h2.5667c0.57742-0.0322 1.624 0.21183 2.0375 1.336 0.000509 0.00096 0.64636 1.822 0.64636 1.822 0.0033 0.01 0.28214 0.80282 0.28214 0.80282-0.000315 0.002 0.54939 1.5959 0.54939 1.5959l0.21397 0.61981h-4.4854"/><path fill="#f60" d="m72.524 223.46-1.2969 0.95933h-0.06373-2.3134c-1.0226 0-1.7862-0.83828-2.1014-1.3592h-3.0075c-0.38761 0.008-1.5837-0.17999-1.9354-1.1119-0.21982-0.58269-0.84021-2.5835-0.84021-2.5835l-0.57571-1.84s3.8005-0.00073 4.2953-0.00073c-0.05524-0.13877-0.1638-0.4123-0.1638-0.4123l1.3876-1.081 2.2304 0.002c1.2175 0 2.0016 0.91235 2.3514 1.7827 0.2075-0.14163 0.556-0.379 0.556-0.379h2.4837c0.49701-0.0326 1.4163 0.17353 1.7774 1.1559 0 0.00022 0.64492 1.8184 0.64492 1.8184 0.0032 0.009 0.28197 0.8025 0.28197 0.8025-0.000787 0.00079 0.54907 1.5944 0.54907 1.5944l0.08797 0.25514h-4.4895c0.04691 0.13145 0.14186 0.39729 0.14186 0.39729"/><path d="m72.294 223.39-1.1308 0.83688h-2.3134c-1.0422 0-1.7817-0.96563-1.9938-1.3594h-3.1152c-0.42451 0.008-1.4589-0.20087-1.7551-0.98745-0.22314-0.59038-0.61396-1.8467-0.79504-2.4354l0.55821-0.37569-0.67417 0.005-0.42366-1.3571 4.3169-0.00096-0.21498-0.54138 1.2213-0.95168 2.1645 0.002c1.3261 0 2.0248 1.1549 2.2556 1.8888l0.71125-0.48486h2.4258c0.43109-0.0326 1.2685 0.14067 1.5956 1.0298 0.13482 0.36814 0.62611 1.7656 0.64712 1.8255l0.27899 0.79287h-0.0016l0.55015 1.593h-4.4926l0.18539 0.52"/><path fill="#f60" d="m68.764 223.72-0.13376-0.0343c-0.52059-0.13338-0.99001-0.57805-1.3337-1.2634-0.12538-0.25001-0.16925-0.36152-0.41967-1.0669-0.21612-0.60879-0.22265-0.63102-0.19476-0.65811 0.01588-0.0154 0.49431-0.38817 1.0633-0.82824 0.56896-0.4401 1.0361-0.80836 1.0382-0.81848 0.0021-0.0101-0.08773-0.27074-0.1996-0.57909l-0.20346-0.56064-0.68078-0.004c-0.37447-0.002-0.68083-0.002-0.68078 0 0.000045 0.002 0.06113 0.16759 0.1357 0.36738 0.07457 0.19978 0.13931 0.37572 0.14387 0.39092 0.0079 0.0262-0.11184 0.0276-2.3599 0.0276-1.3025 0-2.6344 0.005-2.9596 0.0104l-0.59133 0.0105-0.07453-0.25128c-0.04102-0.13818-0.07464-0.25656-0.07462-0.26304 0-0.006 1.0113-0.0135 2.2472-0.0157l2.2472-0.004-0.15468-0.41852c-0.08504-0.23018-0.15283-0.4281-0.15064-0.43979 0.0022-0.0117 0.16742-0.14108 0.3672-0.28757l0.00009 0.00009 0.36324-0.26638 1.1134 0.004c1.0923 0.004 1.1158 0.005 1.2459 0.0391 0.15222 0.0402 0.35351 0.13059 0.48648 0.21849 0.1197 0.0791 0.3177 0.26784 0.43408 0.4136 0.17536 0.21964 0.36718 0.59282 0.45665 0.88864 0.01941 0.0642 0.14061 0.42159 0.26938 0.79431 0.14801 0.42844 0.22887 0.68407 0.21981 0.69491-0.0079 0.01-0.47303 0.39026-1.0335 0.84629-0.56046 0.45603-1.0194 0.83648-1.0198 0.84539-0.000477 0.009 0.08276 0.24346 0.18492 0.52118l0.18571 0.50493 0.6829 0.004c0.37556 0.002 0.68281 0.002 0.68281-0.001 0-0.009-0.16606-0.45089-0.21928-0.58377-0.02705-0.0675-0.04922-0.12613-0.04922-0.13025 0-0.004 1.3166-0.007 2.9257-0.007l2.9256 0.00027 0.09632 0.24055 0.09632 0.24055-0.57013 0.01c-0.31355 0.005-1.3252 0.0106-2.2481 0.0118-0.92288 0.001-1.678 0.007-1.678 0.0119 0 0.005 0.06861 0.20157 0.15249 0.43618 0.12362 0.34575 0.14835 0.42908 0.13034 0.43971-0.01222 0.007-0.16424 0.11656-0.33784 0.24292l-0.31561 0.22974-0.11874-0.00044c-0.06529-0.0002-0.56284 0.008-1.1057 0.0184l-0.98709 0.0188zm-2.8586-1.4109-1.2556-0.004-1.2556-0.004-0.11056-0.0369c-0.36545-0.12185-0.64658-0.38265-0.79476-0.7373-0.05841-0.13985-0.68771-1.9651-0.67979-1.9718 0.0033-0.003 0.16546-0.11645 0.36052-0.25267l0.35463-0.24767 1.1536 0.005c1.2598 0.006 1.2117 0.003 1.4595 0.10124 0.23475 0.0934 0.45759 0.27108 0.56757 0.45255 0.03029 0.05 0.20954 0.52068 0.42881 1.1261 0.20722 0.57216 0.38426 1.0597 0.39347 1.0834 0.01662 0.0428 0.01415 0.045-0.30251 0.26446l-0.3193 0.2213zm-2.2006-0.52099h0.81992c0.67183 0 0.82001-0.004 0.82001-0.021 0-0.0116-0.17338-0.50727-0.3853-1.1016h-0.00009l-0.3853-1.0805-0.8071-0.004c-0.44797-0.002-0.807 0.002-0.807 0.01 0 0.0131 0.66881 1.992 0.72007 2.1305l0.02478 0.0671zm7.8662-0.36307-0.13895-0.39084c-0.07641-0.215-0.29733-0.83513-0.49094-1.378-0.27255-0.76426-0.34767-0.99109-0.33292-1.0052 0.01048-0.01 0.16594-0.11831 0.34549-0.24072l0.32642-0.22262 1.1345-0.004c0.62395-0.002 1.1842-0.002 1.245 0.001 0.3095 0.0152 0.59686 0.15337 0.78343 0.37677 0.13936 0.16686 0.12496 0.1297 0.78176 2.0152 0.15977 0.45868 0.29047 0.8372 0.29047 0.84116 0 0.004-0.26392 0.005-0.58638 0.003l-0.58629-0.004-0.12287-0.35533c-0.06759-0.19543-0.24707-0.71476-0.39884-1.154-0.15177-0.43923-0.29624-0.84008-0.32106-0.89075-0.05899-0.12046-0.15893-0.22136-0.27114-0.27395l-0.09035-0.0424-0.67516-0.005c-0.37134-0.003-0.67516-0.002-0.67516 0.002 0 0.006 0.92031 2.6467 0.9434 2.707 0.0059 0.0156-0.11567 0.0197-0.57639 0.0197h-0.58404z"/></g><path fill="#0085de" d="m31.869 266.37c-0.023-0.016-0.038-0.033-0.064-0.037-0.051-0.008-0.043 0.036-0.078 0.06-0.022 0.016-0.042-0.004-0.061 0.032 0.073-0.003 0.17 0.004 0.225-0.052-0.007 0.004-0.019-0.001-0.022-0.003"/></g></g></svg>